<svg viewBox="0 0 143 30" fill="none" xmlns="http://www.w3.org/2000/svg"><path class="logo-chars" d="M52.546 23.508c-2.43 3.301-5.771 4.902-9.72 4.902-6.986 0-11.947-5.802-11.947-11.704 0-5.902 4.961-11.704 11.846-11.704 4.05 0 7.29 1.6 9.72 4.801.81 1.1.607 2.501-.406 3.201-1.214.9-2.632.3-3.644-.9-1.114-1.3-2.734-2.6-5.569-2.6-3.34 0-6.783 2.9-6.783 7.102 0 4.201 3.442 7.102 6.885 7.102 2.834 0 4.556-1.2 5.77-2.8.71-.901 2.127-1.601 3.341-.701 1.013.9 1.215 2.4.507 3.301zm5.467-18.206c1.417 0 2.43 1 2.43 2.4V25.71c0 1.4-1.013 2.4-2.43 2.4-1.417 0-2.43-1-2.43-2.4V7.703c0-1.4 1.013-2.401 2.43-2.401zm5.265 2.901c0-1.4 1.215-2.601 2.632-2.601 1.418 0 2.531 1.2 2.531 2.6 0 1.401-1.215 2.602-2.53 2.602-1.418 0-2.633-1.2-2.633-2.601zm2.632 4.401c1.418 0 2.43 1 2.43 2.401v8.703c0 1.4-1.012 2.4-2.43 2.4-1.417 0-2.43-1-2.43-2.4v-8.703c0-1.4 1.013-2.4 2.43-2.4zm19.135 13.105c-1.417 1.7-3.645 2.7-6.075 2.7-4.454 0-7.998-3.5-7.998-7.902s3.645-7.903 7.999-7.903c2.43 0 4.657 1 6.074 2.701 1.013 1.2.608 2.301-.506 3.101-1.215.7-1.823.3-2.936-.8-.506-.5-1.316-.9-2.329-.9-2.43 0-3.847 1.9-3.847 3.801 0 1.9 1.417 3.801 3.847 3.801 1.013 0 1.823-.4 2.329-.9 1.114-1.1 1.721-1.5 2.936-.8 1.114.8 1.519 1.9.506 3.1zm16.503 1.901c-1.012.8-2.43.6-3.24-.5l-5.467-6.903v5.602c0 1.4-1.012 2.4-2.43 2.4-1.417 0-2.43-1-2.43-2.4V7.803c0-1.4 1.013-2.401 2.43-2.401 1.418 0 2.43 1 2.43 2.4v11.705l2.531-3.001 2.43-2.801c.911-1 2.329-1.2 3.341-.4 1.013.8 1.114 2.2.203 3.2l-3.139 3.402 3.746 4.601c.81.9.608 2.301-.405 3.101zm32.904-10.704v.1c0 1.6-.404 3.2-1.113 4.601-.506 1.1-1.215 2.201-2.126 3.101l1.215 1.501c.911 1.1.607 2.1-.507 2.9l-.202.101c-1.013.8-2.126.6-2.936-.5l-1.215-1.5c-1.519.7-3.341 1.1-5.164 1.1-6.581 0-11.946-5.302-11.946-11.704 0-6.503 5.365-11.704 11.946-11.704 6.581 0 11.947 5.301 11.947 11.704v.3h.101zm-6.277 3.901c.405-.6.709-1.3.912-2a7.55 7.55 0 00.303-2.101c0-3.902-3.037-7.103-6.884-7.103-3.746 0-6.885 3.101-6.885 7.103 0 3.901 3.139 7.102 6.885 7.102.708 0 1.417-.1 2.126-.3l-.81-1.1c-.911-1.1-.81-2.201.405-2.901l.202-.1c1.114-.7 2.126-.6 2.936.5l.81.9zm9.011-12.604c0-1.4 1.215-2.601 2.632-2.601 1.418 0 2.532 1.2 2.532 2.6 0 1.401-1.215 2.602-2.532 2.602a2.598 2.598 0 01-2.632-2.601zm2.531 4.401c1.418 0 2.43 1 2.43 2.401v8.703c0 1.4-1.012 2.4-2.43 2.4-1.417 0-2.43-1-2.43-2.4v-8.703c.102-1.4 1.114-2.4 2.43-2.4z" fill="#512D6D"/><path d="M11.948 4.768c-3.878 0-7.022 3.044-7.022 6.797 0 2.232 1.048 4.16 2.83 5.377.628.406.943 1.116.943 1.928 0 1.318-1.153 2.434-2.516 2.434-.524 0-1.048-.203-1.467-.507C1.782 18.667 0 15.32 0 11.565 0 5.174 5.345 0 11.948 0 18.55 0 24 5.072 24 11.464c0 3.753-1.887 7.101-4.716 9.232-.42.304-.943.507-1.467.507-1.363 0-2.516-1.116-2.516-2.435 0-.812.42-1.522.943-1.927 1.677-1.218 2.83-3.247 2.83-5.377-.105-3.652-3.249-6.696-7.126-6.696zm5.764 20.797c0-1.319-1.153-2.435-2.515-2.435H8.803c-1.362 0-2.515 1.116-2.515 2.435 0 1.32 1.153 2.435 2.515 2.435h6.498c1.363-.101 2.41-1.116 2.41-2.435z" fill="url(#paint0_linear)"/><defs><linearGradient id="paint0_linear" x1=".842" y1="3.938" x2="24.046" y2="4.574" gradientUnits="userSpaceOnUse"><stop stop-color="#F8485E"/><stop offset="1" stop-color="#E11383"/></linearGradient></defs></svg>