<svg viewBox="0 0 143 30" fill="none" xmlns="http://www.w3.org/2000/svg">
<g>
<path class="logo-chars" d="M52.5457 23.508C50.1159 26.8091 46.7748 28.4097 42.8262 28.4097C35.8404 28.4097 30.8794 22.6077 30.8794 16.7057C30.8794 10.8037 35.8404 5.00171 42.725 5.00171C46.7748 5.00171 50.0146 6.60225 52.4445 9.80334C53.2544 10.9037 53.0519 12.3042 52.0395 13.0044C50.8246 13.9047 49.4071 13.3045 48.3947 12.1041C47.281 10.8037 45.6611 9.50324 42.8262 9.50324C39.4852 9.50324 36.0429 12.4042 36.0429 16.6057C36.0429 20.8071 39.4852 23.7081 42.9275 23.7081C45.7623 23.7081 47.4835 22.5077 48.6984 20.9071C49.4071 20.0068 50.8246 19.3066 52.0395 20.2069C53.0519 21.1072 53.2544 22.6077 52.5457 23.508Z" fill="#512D6D"></path>
<path class="logo-chars" d="M58.0129 5.30185C59.4303 5.30185 60.4428 6.30219 60.4428 7.70267V25.7088C60.4428 27.1093 59.4303 28.1096 58.0129 28.1096C56.5955 28.1096 55.583 27.1093 55.583 25.7088V7.70267C55.583 6.30219 56.5955 5.30185 58.0129 5.30185Z" fill="#512D6D"></path>
<path class="logo-chars" d="M63.2778 8.20276C63.2778 6.80228 64.4928 5.60187 65.9102 5.60187C67.3276 5.60187 68.4413 6.80228 68.4413 8.20276C68.4413 9.60323 67.2264 10.8036 65.9102 10.8036C64.4928 10.8036 63.2778 9.60323 63.2778 8.20276ZM65.9102 12.6043C67.3276 12.6043 68.3401 13.6046 68.3401 15.0051V23.708C68.3401 25.1085 67.3276 26.1089 65.9102 26.1089C64.4928 26.1089 63.4803 25.1085 63.4803 23.708V15.0051C63.4803 13.6046 64.4928 12.6043 65.9102 12.6043Z" fill="#512D6D"></path>
<path class="logo-chars" d="M85.0452 25.7087C83.6277 27.4093 81.4004 28.4097 78.9705 28.4097C74.5157 28.4097 70.9722 24.9085 70.9722 20.507C70.9722 16.1055 74.617 12.6043 78.9705 12.6043C81.4004 12.6043 83.6277 13.6046 85.0452 15.3052C86.0576 16.5056 85.6526 17.606 84.5389 18.4063C83.324 19.1065 82.7165 18.7064 81.6028 17.606C81.0966 17.1058 80.2867 16.7057 79.2742 16.7057C76.8444 16.7057 75.4269 18.6063 75.4269 20.507C75.4269 22.4076 76.8444 24.3083 79.2742 24.3083C80.2867 24.3083 81.0966 23.9081 81.6028 23.408C82.7165 22.3076 83.324 21.9074 84.5389 22.6077C85.6526 23.408 86.0576 24.5083 85.0452 25.7087Z" fill="#512D6D"></path>
<path class="logo-chars" d="M101.548 27.6094C100.536 28.4097 99.1183 28.2096 98.3084 27.1092L92.8412 20.2069V25.8088C92.8412 27.2093 91.8287 28.2096 90.4113 28.2096C88.9939 28.2096 87.9814 27.2093 87.9814 25.8088V7.80267C87.9814 6.4022 88.9939 5.40186 90.4113 5.40186C91.8287 5.40186 92.8412 6.4022 92.8412 7.80267V19.5067L95.3723 16.5056L97.8022 13.7047C98.7134 12.7043 100.131 12.5043 101.143 13.3045C102.156 14.1048 102.257 15.5053 101.346 16.5056L98.2071 19.9068L101.953 24.5084C102.763 25.4087 102.561 26.8091 101.548 27.6094Z" fill="#512D6D"></path>
<path class="logo-chars" d="M134.452 16.9058C134.452 17.0058 134.452 17.0058 134.452 17.0058C134.452 18.6064 134.048 20.2069 133.339 21.6074C132.833 22.7078 132.124 23.8081 131.213 24.7084L132.428 26.209C133.339 27.3093 133.035 28.3097 131.921 29.1099L131.719 29.21C130.706 30.0103 129.593 29.8102 128.783 28.7098L127.568 27.2093C126.049 27.9095 124.227 28.3097 122.404 28.3097C115.823 28.3097 110.458 23.0079 110.458 16.6057C110.458 10.1035 115.823 4.9017 122.404 4.9017C128.985 4.9017 134.351 10.2035 134.351 16.6057V16.9058H134.452ZM128.175 20.8071C128.58 20.2069 128.884 19.5067 129.087 18.8064C129.289 18.1062 129.39 17.406 129.39 16.7057C129.39 12.8044 126.353 9.6033 122.506 9.6033C118.76 9.6033 115.621 12.7044 115.621 16.7057C115.621 20.6071 118.76 23.8081 122.506 23.8081C123.214 23.8081 123.923 23.7081 124.632 23.508L123.822 22.4077C122.911 21.3073 123.012 20.2069 124.227 19.5067L124.429 19.4066C125.543 18.7064 126.555 18.8064 127.365 19.9068L128.175 20.8071Z" fill="#512D6D"></path>
<path class="logo-chars" d="M137.186 8.20276C137.186 6.80228 138.401 5.60187 139.818 5.60187C141.236 5.60187 142.35 6.80228 142.35 8.20276C142.35 9.60323 141.135 10.8036 139.818 10.8036C138.3 10.8036 137.186 9.60323 137.186 8.20276ZM139.717 12.6043C141.135 12.6043 142.147 13.6046 142.147 15.0051V23.708C142.147 25.1085 141.135 26.1089 139.717 26.1089C138.3 26.1089 137.287 25.1085 137.287 23.708V15.0051C137.389 13.6046 138.401 12.6043 139.717 12.6043Z" fill="#512D6D"></path>
<path id="logo-symbol" d="M11.9476 4.76812C8.06987 4.76812 4.92576 7.81159 4.92576 11.5652C4.92576 13.7971 5.9738 15.7246 7.75546 16.942C8.38428 17.3478 8.69869 18.058 8.69869 18.8696C8.69869 20.1884 7.54585 21.3043 6.18341 21.3043C5.65939 21.3043 5.13537 21.1014 4.71616 20.7971C1.78166 18.6667 0 15.3188 0 11.5652C0 5.17391 5.34498 0 11.9476 0C18.5502 0 24 5.07246 24 11.4638C24 15.2174 22.1135 18.5652 19.2838 20.6957C18.8646 21 18.3406 21.2029 17.8166 21.2029C16.4541 21.2029 15.3013 20.087 15.3013 18.7681C15.3013 17.9565 15.7205 17.2464 16.2445 16.8406C17.9214 15.6232 19.0742 13.5942 19.0742 11.4638C18.9694 7.81159 15.8253 4.76812 11.9476 4.76812ZM17.7118 25.5652C17.7118 24.2464 16.559 23.1304 15.1965 23.1304H8.80349C7.44105 23.1304 6.28821 24.2464 6.28821 25.5652C6.28821 26.8841 7.44105 28 8.80349 28H15.3013C16.6638 27.8986 17.7118 26.8841 17.7118 25.5652Z" fill="url(#paint0_linear)"></path>
</g>
<defs>
<linearGradient id="paint0_linear" x1="0.842105" y1="3.93751" x2="24.0463" y2="4.57424" gradientUnits="userSpaceOnUse">
<stop stop-color="#F8485E"></stop>
<stop offset="1" stop-color="#E11383"></stop>
</linearGradient>
</defs>
</svg>